<?xml version="1.0" encoding="UTF-8"?>
<svg version="1.1" xmlns="http://www.w3.org/2000/svg" width="244" height="69">
<path d="M0 0 C80.52 0 161.04 0 244 0 C244 0.99 244 1.98 244 3 C163.48 3 82.96 3 0 3 C0 2.01 0 1.02 0 0 Z " fill="#FFFFFF" transform="translate(0,43)"/>
<path d="M0 0 C3.5 0.25 3.5 0.25 5.5 2.25 C5.5 3.24 5.5 4.23 5.5 5.25 C4.51 4.92 3.52 4.59 2.5 4.25 C2.5 3.59 2.5 2.93 2.5 2.25 C0.85 2.58 -0.8 2.91 -2.5 3.25 C-2.41433603 6.162575 -1.92089045 7.81798024 0.125 9.91796875 C1.88391375 11.41091772 3.66313019 12.85436262 5.5 14.25 C5.83 13.26 6.16 12.27 6.5 11.25 C7.16 11.25 7.82 11.25 8.5 11.25 C8.4071875 12.85875 8.4071875 12.85875 8.3125 14.5 C8.50543309 18.35866187 8.89665076 19.53817788 11.5 22.25 C9.89125 21.940625 9.89125 21.940625 8.25 21.625 C4.69097666 20.93201459 4.69097666 20.93201459 2.5 22.25 C-0.64559343 23.82279672 -3.16315642 22.9915208 -6.5 22.25 C-8.5 20.25 -8.5 20.25 -8.8125 16.8125 C-8.5 13.25 -8.5 13.25 -7 11.8125 C-5.30683099 10.38324836 -5.30683099 10.38324836 -5.37109375 8.3671875 C-5.39300781 7.64789062 -5.41492188 6.92859375 -5.4375 6.1875 C-5.458125 4.888125 -5.47875 3.58875 -5.5 2.25 C-3.5 0.25 -3.5 0.25 0 0 Z M-4.5 12.25 C-6.72738107 14.93671748 -6.72738107 14.93671748 -6.375 17.3125 C-5.62593956 19.3691455 -5.62593956 19.3691455 -3.75 20.625 C-0.73702475 21.46193757 0.76341187 20.61829407 3.5 19.25 C2.21700242 16.38792848 0.969364 14.2254912 -1.5 12.25 C-2.49 12.25 -3.48 12.25 -4.5 12.25 Z " fill="#49BD7D" transform="translate(106.5,7.75)"/>
<path d="M0 0 C3.43489267 0.50400339 5.17053673 1.7866695 7.44921875 4.359375 C9.08108074 9.25496097 9.28853656 13.60443775 7.07421875 18.234375 C4.57268191 21.50561548 3.88335154 22.26531289 -0.30078125 23.171875 C-4.48054711 23.60505073 -7.0111378 22.7191373 -10.55078125 20.359375 C-12.93676292 16.78040249 -13.33657628 14.64347445 -13.55078125 10.359375 C-10.8156221 2.15389754 -8.49061791 -0.24790125 0 0 Z M-7.92578125 4.234375 C-10.82472293 8.02529873 -11.03682114 10.57998276 -10.55078125 15.359375 C-8.63411458 18.44270833 -8.63411458 18.44270833 -5.55078125 20.359375 C-1.51866761 20.99602452 0.46659179 21.05755731 3.82421875 18.671875 C5.67399148 16.03950611 6.29628687 14.57094456 6.44921875 11.359375 C5.56305179 7.66701265 4.78010784 4.4268234 1.44921875 2.359375 C-2.60638216 1.84320761 -4.66225795 1.65790923 -7.92578125 4.234375 Z " fill="#FFFFFF" transform="translate(86.55078125,7.640625)"/>
<path d="M0 0 C2.87029869 1.79393668 4.49131638 2.98263276 6 6 C6.59886728 11.31280831 6.94039306 15.57516204 3.9375 20.125 C0.43814904 22.35862827 -1.85764389 22.92602936 -6 23 C-9.23527817 22.24760973 -10.80142732 21.17173854 -13.3125 19 C-15.73831514 14.68743975 -15.81102776 10.84231282 -15 6 C-11.1658506 -0.26244401 -6.95765643 -0.90125083 0 0 Z M-10.375 3.5625 C-12.54707763 6.82061644 -12.93260614 9.09115592 -13 13 C-11.45204133 17.32393774 -11.45204133 17.32393774 -8 20 C-4.55008707 20.25554911 -1.86539277 20.34160241 1.375 19.0625 C3.93595281 15.8120599 4.21185712 12.07471862 4 8 C2.77262776 4.70516093 2.04900781 4.03267187 -1 2 C-4.84765451 1.58025587 -7.09631706 1.40547175 -10.375 3.5625 Z " fill="#FFFFFF" transform="translate(162,8)"/>
<path d="M0 0 C3.63 0 7.26 0 11 0 C14 3 14 3 14.4375 5.9375 C13.91278296 9.61051925 12.82790258 10.70232915 10 13 C11.98 15.64 13.96 18.28 16 21 C15.01 21.33 14.02 21.66 13 22 C12.52949219 21.43410156 12.05898437 20.86820313 11.57421875 20.28515625 C10.95160156 19.55167969 10.32898438 18.81820313 9.6875 18.0625 C9.07261719 17.33160156 8.45773438 16.60070312 7.82421875 15.84765625 C6.04024481 13.76179634 6.04024481 13.76179634 3 13 C3 15.97 3 18.94 3 22 C2.01 22 1.02 22 0 22 C0 14.74 0 7.48 0 0 Z M3 2 C3 4.97 3 7.94 3 11 C8.01535052 10.67039784 8.01535052 10.67039784 12 8 C11.83492354 5.42459787 11.83492354 5.42459787 11 3 C8.29120665 1.64560332 5.99066732 1.93498549 3 2 Z " fill="#FFFFFF" transform="translate(56,8)"/>
<path d="M0 0 C3.63 0 7.26 0 11 0 C14 3 14 3 14.00390625 4.9375 C13.85824219 5.618125 13.71257812 6.29875 13.5625 7 C13.08564448 9.02871861 13.08564448 9.02871861 13 11 C13.99 12.485 13.99 12.485 15 14 C15.34576265 16.76610122 15.47036103 18.31716554 13.8671875 20.64453125 C10.03997478 23.42286349 4.4885308 22.14479132 0 22 C0 14.74 0 7.48 0 0 Z M2 2 C2 4.64 2 7.28 2 10 C6.72415328 10.39875273 6.72415328 10.39875273 11 8.75 C12.2059245 7.02592983 12.2059245 7.02592983 11.8125 4.875 C11.1564434 2.81035868 11.1564434 2.81035868 9 2 C6.6670134 1.95977609 4.33293334 1.95679753 2 2 Z M2 12 C2 14.64 2 17.28 2 20 C3.47906892 20.02689216 4.95827483 20.04634621 6.4375 20.0625 C7.67306641 20.07990234 7.67306641 20.07990234 8.93359375 20.09765625 C10.99163938 20.23267348 10.99163938 20.23267348 12 19 C12.2500773 16.54190002 12.2500773 16.54190002 12 14 C10.23863645 11.81668311 10.23863645 11.81668311 8.0546875 11.8046875 C5.02734375 11.90234375 5.02734375 11.90234375 2 12 Z " fill="#FFFFFF" transform="translate(121,8)"/>
<path d="M0 0 C4.62 0 9.24 0 14 0 C14 0.66 14 1.32 14 2 C10.37 2 6.74 2 3 2 C3 4.64 3 7.28 3 10 C5.97 10 8.94 10 12 10 C12 10.66 12 11.32 12 12 C9.03 12 6.06 12 3 12 C3 14.64 3 17.28 3 20 C6.63 20 10.26 20 14 20 C14 20.66 14 21.32 14 22 C9.38 22 4.76 22 0 22 C0 14.74 0 7.48 0 0 Z " fill="#FFFFFF" transform="translate(212,8)"/>
<path d="M0 0 C0.66 0 1.32 0 2 0 C2.07347656 1.68029297 2.07347656 1.68029297 2.1484375 3.39453125 C2.22347856 4.86721203 2.29902582 6.33986707 2.375 7.8125 C2.4059375 8.55048828 2.436875 9.28847656 2.46875 10.04882812 C2.67346148 13.81893115 2.86433827 15.79650741 5 19 C6.97747122 19.36297936 6.97747122 19.36297936 9.125 19.1875 C10.40375 19.125625 11.6825 19.06375 13 19 C14.32594359 13.03325384 14.0884587 7.07416385 14 1 C14.99 0.67 15.98 0.34 17 0 C17.1083667 2.7302389 17.18746694 5.45614543 17.25 8.1875 C17.30027344 9.34088867 17.30027344 9.34088867 17.3515625 10.51757812 C17.42002516 14.50552804 17.30272909 16.5072601 15.1640625 19.98828125 C12.36950954 22.58610575 10.80361902 23 7 23 C1.38823529 20.77647059 1.38823529 20.77647059 0 18 C-0.08308638 16.62451844 -0.10736016 15.24514204 -0.09765625 13.8671875 C-0.09443359 13.06152344 -0.09121094 12.25585938 -0.08789062 11.42578125 C-0.07951172 10.58402344 -0.07113281 9.74226563 -0.0625 8.875 C-0.05798828 8.02550781 -0.05347656 7.17601562 -0.04882812 6.30078125 C-0.03702874 4.20049091 -0.01909306 2.1002367 0 0 Z " fill="#FFFFFF" transform="translate(190,8)"/>
<path d="M0 0 C4.62 0 9.24 0 14 0 C14 0.66 14 1.32 14 2 C10.04 2 6.08 2 2 2 C2 4.64 2 7.28 2 10 C5.3 10 8.6 10 12 10 C12 10.66 12 11.32 12 12 C8.7 12 5.4 12 2 12 C2 14.64 2 17.28 2 20 C5.96 20 9.92 20 14 20 C14 20.66 14 21.32 14 22 C9.38 22 4.76 22 0 22 C0 14.74 0 7.48 0 0 Z " fill="#FFFFFF" transform="translate(21,8)"/>
<path d="M0 0 C10 0 10 0 12.625 1.625 C14.39852706 4.68836492 14.51924297 6.51365432 14 10 C12.36369785 12.17483197 11.41360785 12.90642033 8.73828125 13.51171875 C7.93777344 13.56972656 7.13726562 13.62773437 6.3125 13.6875 C5.10013672 13.78611328 5.10013672 13.78611328 3.86328125 13.88671875 C3.24839844 13.92410156 2.63351563 13.96148437 2 14 C2 16.64 2 19.28 2 22 C1.34 22 0.68 22 0 22 C0 14.74 0 7.48 0 0 Z M2 2 C2 5.3 2 8.6 2 12 C4.64 11.67 7.28 11.34 10 11 C11.87543354 7.13236554 11.87543354 7.13236554 11 3 C8.04335481 1.5216774 5.25770263 1.93967217 2 2 Z " fill="#FFFFFF" transform="translate(3,8)"/>
<path d="M0 0 C4.29 0 8.58 0 13 0 C13 0.66 13 1.32 13 2 C9.37 2 5.74 2 2 2 C2 4.64 2 7.28 2 10 C5.3 10 8.6 10 12 10 C12 10.66 12 11.32 12 12 C8.7 12 5.4 12 2 12 C2 15.3 2 18.6 2 22 C1.01 22 0.02 22 -1 22 C-1.02895225 18.70835171 -1.0467823 15.41673601 -1.0625 12.125 C-1.07506836 10.71927734 -1.07506836 10.71927734 -1.08789062 9.28515625 C-1.09111328 8.38925781 -1.09433594 7.49335938 -1.09765625 6.5703125 C-1.10289307 5.74289551 -1.10812988 4.91547852 -1.11352539 4.06298828 C-1 2 -1 2 0 0 Z " fill="#FFFFFF" transform="translate(173,8)"/>
<path d="M0 0 C5.94 0 11.88 0 18 0 C18 0.66 18 1.32 18 2 C15.36 2 12.72 2 10 2 C10 8.6 10 15.2 10 22 C9.01 22 8.02 22 7 22 C7 15.4 7 8.8 7 2 C4.69 2 2.38 2 0 2 C0 1.34 0 0.68 0 0 Z " fill="#FFFFFF" transform="translate(36,8)"/>
<path d="M0 0 C0.99 0 1.98 0 3 0 C3 6.6 3 13.2 3 20 C6.3 20 9.6 20 13 20 C13 20.66 13 21.32 13 22 C8.71 22 4.42 22 0 22 C0 14.74 0 7.48 0 0 Z " fill="#FFFFFF" transform="translate(230,8)"/>
<path d="M0 0 C0.99 0 1.98 0 3 0 C3 7.26 3 14.52 3 22 C2.01 22 1.02 22 0 22 C0 14.74 0 7.48 0 0 Z " fill="#FFFFFF" transform="translate(140,8)"/>
<path d="M0 0 C4 1 4 1 6 4 C6.33 2.68 6.66 1.36 7 0 C7.66 0 8.32 0 9 0 C9 3.3 9 6.6 9 10 C5 8 5 8 3 5 C2.67 6.65 2.34 8.3 2 10 C1.34 10 0.68 10 0 10 C0 6.7 0 3.4 0 0 Z " fill="#4ABD7F" transform="translate(120,55)"/>
<path d="M0 0 C2.3125 0.8125 2.3125 0.8125 3.3125 2.8125 C1.0025 2.8125 -1.3075 2.8125 -3.6875 2.8125 C-3.6875 4.7925 -3.6875 6.7725 -3.6875 8.8125 C-2.3675 8.8125 -1.0475 8.8125 0.3125 8.8125 C-0.0175 7.8225 -0.3475 6.8325 -0.6875 5.8125 C0.6325 5.8125 1.9525 5.8125 3.3125 5.8125 C3.3125 7.4625 3.3125 9.1125 3.3125 10.8125 C0.65252109 11.55138303 -1.22214544 11.91591212 -3.9375 11.3125 C-5.6875 9.8125 -5.6875 9.8125 -6.4375 6.1875 C-6.52 5.07375 -6.6025 3.96 -6.6875 2.8125 C-4.2961605 0.59829676 -3.32534138 -0.23200056 0 0 Z " fill="#49BD7E" transform="translate(138.6875,54.1875)"/>
<path d="M0 0 C2.64 0 5.28 0 8 0 C10.21538462 5.41538462 10.21538462 5.41538462 9.125 8.375 C8.75375 8.91125 8.3825 9.4475 8 10 C5.36 10 2.72 10 0 10 C0 6.7 0 3.4 0 0 Z M2 1 C2 3.64 2 6.28 2 9 C3.65 8.67 5.3 8.34 7 8 C7 6.02 7 4.04 7 2 C5.35 1.67 3.7 1.34 2 1 Z " fill="#4ABE7E" transform="translate(102,55)"/>
<path d="M0 0 C2.31 0 4.62 0 7 0 C8.08209949 3.24629847 7.78140875 3.87436498 7 7 C7.33 7.99 7.66 8.98 8 10 C7.01 10 6.02 10 5 10 C4.34 9.01 3.68 8.02 3 7 C2.67 7.99 2.34 8.98 2 10 C1.34 10 0.68 10 0 10 C0 6.7 0 3.4 0 0 Z M2 1 C2 1.99 2 2.98 2 4 C2.99 4 3.98 4 5 4 C4.67 3.01 4.34 2.02 4 1 C3.34 1 2.68 1 2 1 Z " fill="#4ABE7E" transform="translate(80,55)"/>
<path d="M0 0 C0.66 0 1.32 0 2 0 C2.33 0.99 2.66 1.98 3 3 C3.99 2.01 4.98 1.02 6 0 C6.99 0.33 7.98 0.66 9 1 C8.01 2.32 7.02 3.64 6 5 C6.99 6.65 7.98 8.3 9 10 C6.13275314 9.42655063 5.1385485 9.1385485 3 7 C2.67 7.99 2.34 8.98 2 10 C1.34 10 0.68 10 0 10 C0 6.7 0 3.4 0 0 Z " fill="#49BD7F" transform="translate(150,55)"/>
<path d="M0 0 C0.99 0 1.98 0 3 0 C4.32 3.3 5.64 6.6 7 10 C6.01 10 5.02 10 4 10 C4 9.34 4 8.68 4 8 C2.35 8 0.7 8 -1 8 C-1 8.66 -1 9.32 -1 10 C-1.66 10 -2.32 10 -3 10 C-2.49287967 6.28111761 -1.88391785 3.26545761 0 0 Z M1 3 C1 3.99 1 4.98 1 6 C1.66 5.67 2.32 5.34 3 5 C2.34 4.34 1.68 3.68 1 3 Z " fill="#4BBC7E" transform="translate(93,55)"/>
<path d="M0 0 C2.97 0 5.94 0 9 0 C8.01 0.33 7.02 0.66 6 1 C6 3.97 6 6.94 6 10 C5.01 10 4.02 10 3 10 C3 7.03 3 4.06 3 1 C2.01 0.67 1.02 0.34 0 0 Z " fill="#4CB87F" transform="translate(69,55)"/>
<path d="M0 0 C2.31 0 4.62 0 7 0 C7 0.33 7 0.66 7 1 C5.35 1 3.7 1 2 1 C2 1.99 2 2.98 2 4 C3.65 4 5.3 4 7 4 C7 4.66 7 5.32 7 6 C5.35 6 3.7 6 2 6 C2 7.32 2 8.64 2 10 C1.34 10 0.68 10 0 10 C0 6.7 0 3.4 0 0 Z " fill="#49BE7F" transform="translate(161,55)"/>
<path d="M0 0 C0.99 0 1.98 0 3 0 C3 3.3 3 6.6 3 10 C2.01 10 1.02 10 0 10 C0 6.7 0 3.4 0 0 Z " fill="#4ABF7C" transform="translate(114,55)"/>
<path d="M0 0 C2.97 0 5.94 0 9 0 C7.68 0.33 6.36 0.66 5 1 C5 3.97 5 6.94 5 10 C4.34 10 3.68 10 3 10 C3 7.03 3 4.06 3 1 C2.01 0.67 1.02 0.34 0 0 Z " fill="#49BE7F" transform="translate(170,55)"/>
</svg>
